<svg width="268" height="59" viewBox="0 0 268 59" fill="none" xmlns="http://www.w3.org/2000/svg">
<path d="M105.048 25.352H109.752V38H114.408V25.352H119.112V21.2H105.048V25.352ZM117.51 32.48C117.51 33.648 117.79 34.664 118.35 35.528C118.91 36.392 119.678 37.064 120.654 37.544C121.646 38.008 122.758 38.24 123.99 38.24C125.238 38.24 126.35 38.008 127.326 37.544C128.302 37.064 129.07 36.392 129.63 35.528C130.206 34.664 130.494 33.648 130.494 32.48C130.494 31.296 130.206 30.272 129.63 29.408C129.07 28.544 128.302 27.88 127.326 27.416C126.35 26.936 125.238 26.696 123.99 26.696C122.758 26.696 121.646 26.936 120.654 27.416C119.678 27.88 118.91 28.544 118.35 29.408C117.79 30.272 117.51 31.296 117.51 32.48ZM121.782 32.48C121.782 31.968 121.878 31.536 122.07 31.184C122.278 30.816 122.55 30.536 122.886 30.344C123.222 30.152 123.59 30.056 123.99 30.056C124.39 30.056 124.758 30.152 125.094 30.344C125.43 30.536 125.702 30.816 125.91 31.184C126.118 31.536 126.222 31.968 126.222 32.48C126.222 32.992 126.118 33.432 125.91 33.8C125.702 34.152 125.43 34.424 125.094 34.616C124.758 34.792 124.39 34.88 123.99 34.88C123.59 34.88 123.222 34.792 122.886 34.616C122.55 34.424 122.278 34.152 122.07 33.8C121.878 33.432 121.782 32.992 121.782 32.48ZM136.747 35.408H140.515V32.072H138.115L136.747 35.408ZM139.147 26.96V38H143.299V26.96H139.147ZM136.579 26.96H132.427V30.128C132.427 31.2 132.555 32.136 132.811 32.936C133.067 33.72 133.507 34.328 134.131 34.76C134.771 35.192 135.643 35.408 136.747 35.408L138.115 32.072C137.763 32.072 137.475 32.024 137.251 31.928C137.027 31.816 136.859 31.648 136.747 31.424C136.635 31.2 136.579 30.896 136.579 30.512V26.96ZM146.116 26.96V38H150.076V26.96H146.116ZM154.06 26.96L149.356 31.52L154.636 38H159.46L154.276 31.52L158.98 26.96H154.06ZM164.36 34.688C164.36 34.448 164.424 34.24 164.552 34.064C164.696 33.872 164.896 33.728 165.152 33.632C165.408 33.52 165.704 33.464 166.04 33.464C166.648 33.464 167.152 33.536 167.552 33.68C167.952 33.824 168.344 34.04 168.728 34.328V32.456C168.552 32.264 168.264 32.088 167.864 31.928C167.48 31.752 167.032 31.616 166.52 31.52C166.008 31.408 165.496 31.352 164.984 31.352C164.024 31.352 163.184 31.496 162.464 31.784C161.744 32.072 161.184 32.48 160.784 33.008C160.384 33.536 160.184 34.16 160.184 34.88C160.184 35.584 160.352 36.192 160.688 36.704C161.04 37.2 161.52 37.584 162.128 37.856C162.752 38.112 163.464 38.24 164.264 38.24C165.032 38.24 165.72 38.112 166.328 37.856C166.936 37.584 167.416 37.2 167.768 36.704C168.136 36.192 168.32 35.584 168.32 34.88L167.936 33.488C167.936 34.048 167.832 34.488 167.624 34.808C167.416 35.112 167.136 35.336 166.784 35.48C166.448 35.608 166.088 35.672 165.704 35.672C165.48 35.672 165.256 35.64 165.032 35.576C164.824 35.496 164.656 35.384 164.528 35.24C164.416 35.096 164.36 34.912 164.36 34.688ZM162.512 30.608C162.688 30.496 162.96 30.376 163.328 30.248C163.696 30.104 164.112 29.976 164.576 29.864C165.056 29.752 165.56 29.696 166.088 29.696C166.696 29.696 167.152 29.84 167.456 30.128C167.776 30.4 167.936 30.76 167.936 31.208V38H171.896V30.272C171.896 29.488 171.656 28.824 171.176 28.28C170.712 27.736 170.072 27.328 169.256 27.056C168.44 26.768 167.512 26.624 166.472 26.624C165.48 26.624 164.528 26.76 163.616 27.032C162.704 27.288 161.896 27.568 161.192 27.872L162.512 30.608ZM193.408 30.44L193.528 26.12L181.792 34.52L181.672 38.84L193.408 30.44ZM185.632 26.96H181.672V38.84L185.632 35.24V26.96ZM193.528 26.12L189.568 29.72V38H193.528V26.12ZM201.651 32.48C203.395 32.576 204.667 32.384 205.467 31.904C206.267 31.408 206.667 30.752 206.667 29.936C206.667 29.328 206.451 28.784 206.019 28.304C205.603 27.808 205.035 27.424 204.315 27.152C203.611 26.864 202.795 26.72 201.867 26.72C200.875 26.72 200.011 26.888 199.275 27.224C198.555 27.544 197.995 28.008 197.595 28.616C197.195 29.208 196.995 29.92 196.995 30.752H200.691C200.707 30.496 200.763 30.288 200.859 30.128C200.971 29.952 201.115 29.824 201.291 29.744C201.483 29.648 201.683 29.6 201.891 29.6C202.195 29.6 202.443 29.688 202.635 29.864C202.827 30.024 202.923 30.232 202.923 30.488C202.923 30.76 202.819 30.984 202.611 31.16C202.419 31.336 202.099 31.424 201.651 31.424V32.48ZM201.819 38.24C202.859 38.24 203.779 38.096 204.579 37.808C205.379 37.52 206.003 37.12 206.451 36.608C206.915 36.08 207.147 35.472 207.147 34.784C207.147 33.808 206.675 33.04 205.731 32.48C204.787 31.904 203.427 31.664 201.651 31.76V33.2C202.019 33.2 202.323 33.24 202.563 33.32C202.819 33.4 203.003 33.528 203.115 33.704C203.243 33.864 203.307 34.064 203.307 34.304C203.307 34.544 203.243 34.744 203.115 34.904C202.987 35.064 202.803 35.192 202.563 35.288C202.339 35.368 202.083 35.408 201.795 35.408C201.443 35.408 201.123 35.312 200.835 35.12C200.547 34.912 200.339 34.584 200.211 34.136H196.323C196.451 35.4 196.979 36.4 197.907 37.136C198.851 37.872 200.155 38.24 201.819 38.24ZM221.731 26.96H210.211V33.008C210.211 33.584 210.035 33.944 209.683 34.088C209.347 34.232 208.939 34.304 208.459 34.304V38C209.931 38 211.083 37.864 211.915 37.592C212.747 37.304 213.331 36.88 213.667 36.32C214.003 35.744 214.171 35.024 214.171 34.16V30.704H217.771V38H221.731V26.96ZM224.385 32.48C224.385 33.648 224.665 34.664 225.225 35.528C225.785 36.392 226.553 37.064 227.529 37.544C228.521 38.008 229.633 38.24 230.865 38.24C232.113 38.24 233.225 38.008 234.201 37.544C235.177 37.064 235.945 36.392 236.505 35.528C237.081 34.664 237.369 33.648 237.369 32.48C237.369 31.296 237.081 30.272 236.505 29.408C235.945 28.544 235.177 27.88 234.201 27.416C233.225 26.936 232.113 26.696 230.865 26.696C229.633 26.696 228.521 26.936 227.529 27.416C226.553 27.88 225.785 28.544 225.225 29.408C224.665 30.272 224.385 31.296 224.385 32.48ZM228.657 32.48C228.657 31.968 228.753 31.536 228.945 31.184C229.153 30.816 229.425 30.536 229.761 30.344C230.097 30.152 230.465 30.056 230.865 30.056C231.265 30.056 231.633 30.152 231.969 30.344C232.305 30.536 232.577 30.816 232.785 31.184C232.993 31.536 233.097 31.968 233.097 32.48C233.097 32.992 232.993 33.432 232.785 33.8C232.577 34.152 232.305 34.424 231.969 34.616C231.633 34.792 231.265 34.88 230.865 34.88C230.465 34.88 230.097 34.792 229.761 34.616C229.425 34.424 229.153 34.152 228.945 33.8C228.753 33.432 228.657 32.992 228.657 32.48ZM250.006 38H254.11L250.63 26.12L248.59 30.8L250.006 38ZM245.398 34.4L246.118 38.744L250.87 31.328L250.63 26.12L245.398 34.4ZM246.118 38.744L246.838 34.4L241.678 26.12L241.438 31.328L246.118 38.744ZM238.222 38H242.326L243.742 30.8L241.678 26.12L238.222 38ZM258.931 34.688C258.931 34.448 258.995 34.24 259.123 34.064C259.267 33.872 259.467 33.728 259.723 33.632C259.979 33.52 260.275 33.464 260.611 33.464C261.219 33.464 261.723 33.536 262.123 33.68C262.523 33.824 262.915 34.04 263.299 34.328V32.456C263.123 32.264 262.835 32.088 262.435 31.928C262.051 31.752 261.603 31.616 261.091 31.52C260.579 31.408 260.067 31.352 259.555 31.352C258.595 31.352 257.755 31.496 257.035 31.784C256.315 32.072 255.755 32.48 255.355 33.008C254.955 33.536 254.755 34.16 254.755 34.88C254.755 35.584 254.923 36.192 255.259 36.704C255.611 37.2 256.091 37.584 256.699 37.856C257.323 38.112 258.035 38.24 258.835 38.24C259.603 38.24 260.291 38.112 260.899 37.856C261.507 37.584 261.987 37.2 262.339 36.704C262.707 36.192 262.891 35.584 262.891 34.88L262.507 33.488C262.507 34.048 262.403 34.488 262.195 34.808C261.987 35.112 261.707 35.336 261.355 35.48C261.019 35.608 260.659 35.672 260.275 35.672C260.051 35.672 259.827 35.64 259.603 35.576C259.395 35.496 259.227 35.384 259.099 35.24C258.987 35.096 258.931 34.912 258.931 34.688ZM257.083 30.608C257.259 30.496 257.531 30.376 257.899 30.248C258.267 30.104 258.683 29.976 259.147 29.864C259.627 29.752 260.131 29.696 260.659 29.696C261.267 29.696 261.723 29.84 262.027 30.128C262.347 30.4 262.507 30.76 262.507 31.208V38H266.467V30.272C266.467 29.488 266.227 28.824 265.747 28.28C265.283 27.736 264.643 27.328 263.827 27.056C263.011 26.768 262.083 26.624 261.043 26.624C260.051 26.624 259.099 26.76 258.187 27.032C257.275 27.288 256.467 27.568 255.763 27.872L257.083 30.608Z" fill="#133192"/>
<path d="M22.168 58.1087C22.168 58.1087 42.7684 20.8259 73 0C73 0 37.0594 19.5943 21.9447 45.5697C21.9447 45.5697 14.9616 40.2011 0 32.246C0 32.246 15.3104 44.9253 22.168 58.1087Z" fill="#CF0602"/>
<path d="M21.3853 36.8914C25.4663 36.8914 28.7746 33.583 28.7746 29.502C28.7746 25.421 25.4663 22.1127 21.3853 22.1127C17.3043 22.1127 13.996 25.421 13.996 29.502C13.996 33.583 17.3043 36.8914 21.3853 36.8914Z" fill="#1C43BF"/>
</svg>
